<svg width="24" height="24" viewBox="0 0 24 24" fill="none" xmlns="http://www.w3.org/2000/svg">
<path d="M11.7503 6.00015C11.7508 6.09869 11.7316 6.19633 11.6938 6.28735C11.656 6.37836 11.6004 6.46091 11.5303 6.53015L6.06032 12.0002L11.5303 17.4702C11.6628 17.6123 11.7349 17.8004 11.7315 17.9947C11.7281 18.189 11.6494 18.3744 11.5119 18.5118C11.3745 18.6492 11.1891 18.7279 10.9948 18.7313C10.8005 18.7348 10.6125 18.6626 10.4703 18.5302L4.47032 12.5302C4.32987 12.3895 4.25098 12.1989 4.25098 12.0002C4.25098 11.8014 4.32987 11.6108 4.47032 11.4702L10.4703 5.47015C10.6109 5.3297 10.8016 5.25081 11.0003 5.25081C11.1991 5.25081 11.3897 5.3297 11.5303 5.47015C11.6004 5.5394 11.656 5.62195 11.6938 5.71296C11.7316 5.80397 11.7508 5.90161 11.7503 6.00015Z" fill="white"/>
<path d="M19.75 12C19.7474 12.1981 19.6676 12.3874 19.5275 12.5275C19.3874 12.6676 19.1981 12.7474 19 12.75L5 12.75C4.80109 12.75 4.61032 12.671 4.46967 12.5303C4.32902 12.3897 4.25 12.1989 4.25 12C4.25 11.8011 4.32902 11.6103 4.46967 11.4697C4.61032 11.329 4.80109 11.25 5 11.25L19 11.25C19.1981 11.2526 19.3874 11.3324 19.5275 11.4725C19.6676 11.6126 19.7474 11.8019 19.75 12Z" fill="white"/>
</svg>
