<svg width="32" height="29" viewBox="0 0 32 29" fill="none" xmlns="http://www.w3.org/2000/svg">
<path d="M15.9312 19.9375C12.6929 19.9375 10.0435 17.4906 10.0435 14.5C10.0435 11.5094 12.6929 9.0625 15.9312 9.0625C19.1694 9.0625 21.8189 11.5094 21.8189 14.5C21.8189 17.4906 19.1694 19.9375 15.9312 19.9375ZM15.9312 10.875C13.7723 10.875 12.006 12.5062 12.006 14.5C12.006 16.4938 13.7723 18.125 15.9312 18.125C18.09 18.125 19.8563 16.4938 19.8563 14.5C19.8563 12.5062 18.09 10.875 15.9312 10.875Z" fill="white"/>
<path d="M15.9313 23.5625C9.67074 23.5625 4.17555 20.0462 2.25223 14.79C2.17341 14.6035 2.17341 14.3965 2.25223 14.21C4.17555 8.97188 9.69037 5.4375 15.9313 5.4375C22.1723 5.4375 27.6871 8.95375 29.6104 14.21C29.6889 14.3913 29.6889 14.6087 29.6104 14.79C27.6871 20.0281 22.1723 23.5625 15.9313 23.5625ZM4.2148 14.5C5.96149 18.85 10.6324 21.75 15.9313 21.75C21.2303 21.75 25.8816 18.85 27.6479 14.5C25.9012 10.15 21.2303 7.25 15.9313 7.25C10.6324 7.25 5.98111 10.15 4.2148 14.5Z" fill="white"/>
</svg>
