<svg width="21" height="21" viewBox="0 0 21 21" fill="none" xmlns="http://www.w3.org/2000/svg">
<path d="M10.5381 19.6191C5.64258 19.6191 1.57324 15.5498 1.57324 10.6543C1.57324 5.75 5.63379 1.68945 10.5293 1.68945C15.4336 1.68945 19.5029 5.75 19.5029 10.6543C19.5029 15.5498 15.4424 19.6191 10.5381 19.6191ZM10.5381 18.125C14.6865 18.125 18.0088 14.8027 18.0088 10.6543C18.0088 6.50586 14.6777 3.18359 10.5293 3.18359C6.38086 3.18359 3.07617 6.50586 3.07617 10.6543C3.07617 14.8027 6.38965 18.125 10.5381 18.125ZM7.53223 14.3721C7.14551 14.3721 6.8291 14.0557 6.8291 13.6602C6.8291 13.4668 6.9082 13.2998 7.04004 13.168L9.53613 10.6631L7.04004 8.1582C6.9082 8.02637 6.8291 7.85938 6.8291 7.66602C6.8291 7.2793 7.14551 6.97168 7.53223 6.97168C7.73438 6.97168 7.89258 7.04199 8.02441 7.18262L10.5293 9.67871L13.0605 7.17383C13.21 7.02441 13.3594 6.9541 13.5439 6.9541C13.9307 6.9541 14.2471 7.27051 14.2471 7.65723C14.2471 7.85059 14.1855 8 14.0361 8.14941L11.5312 10.6631L14.0273 13.1592C14.168 13.2998 14.2383 13.458 14.2383 13.6602C14.2383 14.0557 13.9219 14.3721 13.5352 14.3721C13.333 14.3721 13.166 14.2842 13.0342 14.1523L10.5293 11.6562L8.04199 14.1523C7.91016 14.293 7.73438 14.3721 7.53223 14.3721Z" fill="white"/>
</svg>
