<svg viewBox="0 0 27 28" fill="none" xmlns="http://www.w3.org/2000/svg">
<path d="M13.6953 27.377C6.4082 27.377 0.447266 21.416 0.447266 14.1289C0.447266 6.8418 6.4082 0.880859 13.6953 0.880859C20.9824 0.880859 26.9434 6.8418 26.9434 14.1289C26.9434 21.416 20.9824 27.377 13.6953 27.377ZM13.6953 18.5586C18.4531 18.5586 21.9121 20.9512 22.8281 22.7695C24.9746 20.5137 26.2734 17.4648 26.2734 14.1289C26.2734 7.18359 20.6406 1.55078 13.6953 1.55078C6.76367 1.55078 1.11719 7.18359 1.11719 14.1289C1.11719 17.4512 2.41602 20.4863 4.53516 22.7422C5.50586 20.9238 8.96484 18.5586 13.6953 18.5586ZM13.6953 16.1797C11.0703 16.1797 9.08789 13.9512 9.08789 11.0527C9.06055 8.33203 11.125 6.02148 13.6953 6.02148C16.252 6.02148 18.2891 8.33203 18.2891 11.0527C18.2891 13.9512 16.3066 16.1797 13.6953 16.1797Z" fill="#B1B0B4"/>
</svg>
