<svg viewBox="0 0 52 52" fill="none" xmlns="http://www.w3.org/2000/svg">
<path d="M42.9745 16C42.6205 20.5189 38.9752 24 35 24C31.0248 24 27.3734 20.52 27.0255 16C26.663 11.2989 30.2117 8 35 8C39.7883 8 43.337 11.3844 42.9745 16Z" stroke="#0BD7CB" stroke-width="3" stroke-linecap="round" stroke-linejoin="round"/>
<path d="M34.5 31C27.485 31 20.7391 34.7572 19.0491 42.0744C18.8252 43.0424 19.3882 44 20.3106 44H48.6904C49.6129 44 50.1726 43.0424 49.952 42.0744C48.262 34.64 41.5161 31 34.5 31Z" stroke="#0BD7CB" stroke-width="3" stroke-miterlimit="10"/>
<path d="M19.9813 17.9928C19.7172 21.9128 16.9658 25 14 25C11.0342 25 8.27828 21.914 8.01871 17.9928C7.74899 13.9147 10.427 11 14 11C17.573 11 20.251 13.9895 19.9813 17.9928Z" stroke="#0BD7CB" stroke-width="3" stroke-linecap="round" stroke-linejoin="round"/>
<path d="M21 31.4081C19.0291 30.3911 16.8585 30 14.5578 30C8.87999 30 3.40961 33.1789 2.03928 39.3706C1.85912 40.1896 2.31553 41 3.06239 41H15.3222" stroke="#0BD7CB" stroke-width="3" stroke-miterlimit="10" stroke-linecap="round"/>
</svg>
