<svg  viewBox="0 0 32 32" fill="none" xmlns="http://www.w3.org/2000/svg">
<path d="M11.5988 14.1947L11.4602 13.5413M18.1202 12.808L17.9815 12.1547M11.3335 20.76C13.0108 21.1813 14.9148 21.1813 16.8308 20.668C18.7455 20.1547 20.3935 19.2027 21.6362 18" stroke="#E36036" stroke-width="1.5" stroke-linecap="round" stroke-linejoin="round"/>
<path d="M16.7827 20.8493L17.42 22.148C17.5353 22.3845 17.6962 22.5959 17.8933 22.7702C18.0905 22.9444 18.32 23.078 18.5689 23.1634C18.8178 23.2487 19.081 23.2842 19.3436 23.2676C19.6062 23.2511 19.8629 23.1829 20.0991 23.0669C20.3353 22.951 20.5463 22.7896 20.72 22.592C20.8937 22.3943 21.0267 22.1644 21.1114 21.9153C21.196 21.6662 21.2307 21.4028 21.2135 21.1403C21.1962 20.8777 21.1273 20.6212 21.0107 20.3853L20.3974 19.1387" stroke="#E36036" stroke-width="1.5" stroke-linecap="round" stroke-linejoin="round"/>
<path d="M4 24.7493V16.0587C4 9.4 9.37333 4 16 4C22.6267 4 28 9.4 28 16.0587V24.748C28 26.2973 26.7107 28.1067 25.3333 27.4147C24.22 26.8547 22.3693 26.7213 21.3333 27.4147C20.168 28.1947 18.4987 28.1947 17.3333 27.4147C16.1533 26.624 15.1347 26.6547 14 27.4147C12.8347 28.1947 11.1653 28.1947 10 27.4147C8.964 26.7213 7.78 26.8547 6.66667 27.4147C5.28933 28.1067 4 26.2987 4 24.7493Z" stroke="#E36036" stroke-width="1.5" stroke-linecap="round" stroke-linejoin="round"/>
</svg>
