<svg  viewBox="0 0 52 52" fill="none" xmlns="http://www.w3.org/2000/svg">
<path d="M37.3753 15.1667C37.3753 14.7358 37.2041 14.3224 36.8994 14.0177C36.5946 13.713 36.1813 13.5417 35.7503 13.5417C35.3193 13.5417 34.906 13.713 34.6013 14.0177C34.2965 14.3224 34.1253 14.7358 34.1253 15.1667V17.8751H31.417C30.986 17.8751 30.5727 18.0463 30.2679 18.351C29.9632 18.6558 29.792 19.0691 29.792 19.5001C29.792 19.9311 29.9632 20.3444 30.2679 20.6491C30.5727 20.9539 30.986 21.1251 31.417 21.1251H34.1253V23.8334C34.1253 24.2644 34.2965 24.6777 34.6013 24.9825C34.906 25.2872 35.3193 25.4584 35.7503 25.4584C36.1813 25.4584 36.5946 25.2872 36.8994 24.9825C37.2041 24.6777 37.3753 24.2644 37.3753 23.8334V21.1251H40.0837C40.5146 21.1251 40.928 20.9539 41.2327 20.6491C41.5375 20.3444 41.7087 19.9311 41.7087 19.5001C41.7087 19.0691 41.5375 18.6558 41.2327 18.351C40.928 18.0463 40.5146 17.8751 40.0837 17.8751H37.3753V15.1667Z" fill="#FF3364"/>
<path fill-rule="evenodd" clip-rule="evenodd" d="M49.2913 20.1891C49.2913 12.9827 46.0803 7.60506 41.0797 5.64856C36.4538 3.83506 30.9007 5.19139 25.9997 9.77822C21.0987 5.19139 15.5455 3.83506 10.9197 5.64856C5.91901 7.60506 2.70801 12.9827 2.70801 20.1869C2.70801 24.7781 5.15634 29.2934 8.20484 33.1804C11.2858 37.1086 15.1598 40.6251 18.3925 43.2489L18.6828 43.4872C21.2828 45.5997 23.1635 47.1272 25.9997 47.1272C28.838 47.1272 30.7143 45.5997 33.3165 43.4872L33.6068 43.2489C36.8395 40.6272 40.7135 37.1086 43.7945 33.1804C46.843 29.2934 49.2913 24.7781 49.2913 20.1891ZM27.187 13.1886C31.763 8.29406 36.5058 7.34722 39.8967 8.67322C43.294 10.0036 46.0413 13.8949 46.0413 20.1891C46.0413 23.6796 44.1347 27.4777 41.2357 31.1741C38.367 34.8357 34.701 38.1767 31.5593 40.7269C28.5412 43.1752 27.5662 43.8751 25.9997 43.8751C24.4332 43.8751 23.4582 43.1752 20.44 40.7247C17.2983 38.1767 13.6323 34.8336 10.7637 31.1762C7.86251 27.4777 5.95801 23.6796 5.95801 20.1891C5.95801 13.8949 8.70534 10.0057 12.1027 8.67322C15.4935 7.34722 20.2363 8.29406 24.8123 13.1886C24.9644 13.3513 25.1482 13.481 25.3525 13.5697C25.5567 13.6583 25.777 13.7041 25.9997 13.7041C26.2223 13.7041 26.4426 13.6583 26.6469 13.5697C26.8511 13.481 27.035 13.3513 27.187 13.1886Z" fill="#FF3364"/>
</svg>
