<svg  viewBox="0 0 52 52" fill="none" xmlns="http://www.w3.org/2000/svg">
<path d="M41.4592 16.9964L38.7497 19.4444C38.3358 19.848 37.8395 20.0499 37.2607 20.0499C36.682 20.0499 36.1357 19.8919 35.6219 19.576C35.2097 19.2953 34.9274 18.8916 34.7748 18.3652C34.624 17.8387 34.6459 17.2438 34.8406 16.5805L36.0954 12.4794L33.2543 10.7579C32.7545 10.4648 32.4037 10.0551 32.2021 9.52861C32.0004 9.00215 31.96 8.46692 32.0811 7.92291C32.1986 7.414 32.4932 7.01039 32.9649 6.71206C33.4367 6.41373 33.9882 6.26457 34.6196 6.26457H38.0604L39.0522 2.95316C39.2135 2.38985 39.5196 1.92305 39.9703 1.55278C40.421 1.18426 40.9173 1 41.4592 1C42.0011 1 42.4974 1.18426 42.9481 1.55278C43.3988 1.9213 43.7057 2.38809 43.8688 2.95316L44.8579 6.26457H48.2988C48.8951 6.26457 49.4273 6.41373 49.8956 6.71206C50.3638 7.01039 50.6786 7.414 50.84 7.92291C51.0451 8.47745 51.053 9.02672 50.8636 9.57072C50.6742 10.113 50.3524 10.5087 49.8982 10.7579L46.8204 12.4794L48.0778 16.4805C48.2725 17.1105 48.3023 17.708 48.1672 18.2731C48.0322 18.8381 47.7428 19.2725 47.2991 19.576C46.8081 19.9235 46.2671 20.0893 45.6761 20.0735C45.0851 20.0577 44.5835 19.848 44.1714 19.4444L41.4592 16.9964ZM41.4592 13.248C42.1379 13.248 42.7122 13.0129 43.1822 12.5426C43.6522 12.0723 43.8872 11.4976 43.8872 10.8184C43.8872 10.1393 43.6522 9.56458 43.1822 9.09428C42.7122 8.62398 42.1379 8.38883 41.4592 8.38883C40.7805 8.38883 40.2061 8.62485 39.7361 9.09691C39.2661 9.56897 39.0311 10.1437 39.0311 10.8211C39.0311 11.4984 39.2661 12.0723 39.7361 12.5426C40.2061 13.0129 40.7805 13.2498 41.4592 13.2533M27.8826 41.4372C28.6876 43.5307 28.4 45.4812 27.0198 47.2887C25.6396 49.0962 23.7411 50 21.3245 50C20.1477 50 19.0472 49.6604 18.0231 48.9813C17.0006 48.3039 16.1992 47.3844 15.6187 46.2227C12.8232 46.3455 10.4583 45.447 8.52392 43.5272C6.58954 41.6091 5.67234 39.2576 5.7723 36.4727C4.59203 35.9304 3.66869 35.0881 3.00226 33.9457C2.33584 32.8033 2.00175 31.517 2 30.0868C2 27.8142 3.01454 26.0585 5.04362 24.8196C7.0727 23.5806 9.18157 23.4095 11.3702 24.3063L14.84 25.7119C15.4135 24.115 16.3649 22.8129 17.6942 21.8056C19.0218 20.8001 20.5186 20.2534 22.1847 20.1657V14.8669H24.5128V20.2815C26.4051 20.4956 28.0203 21.2695 29.3584 22.6032C30.6965 23.9369 31.5199 25.6268 31.8285 27.673H37.2081V30.0025H31.918C31.8303 31.6345 31.2708 33.1156 30.2396 34.4458C29.2084 35.776 27.8966 36.7447 26.3042 37.3519L27.8826 41.4372ZM14.7085 43.6246C14.5384 42.4401 14.5436 41.2292 14.7243 39.9921C14.9049 38.7549 15.2267 37.5265 15.6897 36.3069C14.5796 36.7877 13.3932 37.1018 12.1305 37.2492C10.8678 37.3966 9.61562 37.3756 8.37397 37.186C8.47569 39.0655 9.12896 40.608 10.3338 41.8136C11.5386 43.0192 12.9968 43.6228 14.7085 43.6246ZM10.2443 34.6538C11.8508 34.6538 13.444 34.3598 15.0242 33.772C16.6043 33.1858 18.3501 32.2312 20.2617 30.908L10.6495 26.8069C9.17631 26.1804 7.80488 26.2173 6.53518 26.9175C5.26547 27.6177 4.63061 28.6943 4.63061 30.1473C4.63061 31.4564 5.15498 32.5339 6.20372 33.3797C7.25246 34.2273 8.60021 34.6511 10.247 34.6511M21.3245 47.3677C22.7924 47.3677 23.9674 46.8404 24.8495 45.7857C25.7316 44.731 25.9298 43.6018 25.444 42.398L21.385 32.0294C20.0136 33.8369 18.9964 35.5531 18.3335 37.1781C17.6706 38.8031 17.3391 40.3702 17.3391 41.8794C17.3391 43.4974 17.7091 44.8162 18.4492 45.8357C19.1893 46.857 20.1477 47.3677 21.3245 47.3677ZM25.3125 34.8854C26.4928 34.3783 27.4503 33.6026 28.1851 32.5585C28.9199 31.5143 29.2873 30.3605 29.2873 29.097C29.2873 27.3562 28.6919 25.8681 27.5012 24.6327C26.3104 23.3972 24.8504 22.7795 23.1212 22.7795C21.7585 22.7795 20.5493 23.1481 19.4936 23.8851C18.4378 24.6221 17.7188 25.5855 17.3365 26.7753L23.0765 29.2444L25.3125 34.8854Z" fill="#009B2B"/>
</svg>
