<svg viewBox="0 0 52 52" fill="none" xmlns="http://www.w3.org/2000/svg">
<path d="M38.051 19.9811L36.9113 21.9918C35.8388 23.8833 35.3015 24.8279 34.1337 24.9103C32.9637 24.9926 32.4697 24.3166 31.4795 22.9646C30.3788 21.4502 29.6729 19.6853 29.4255 17.8296C29.1937 16.0984 29.0788 15.2339 28.7972 14.8071C28.3508 14.1289 27.4495 13.7563 26.7778 13.3619C25.0077 12.3219 24.1215 11.8019 23.8897 10.9158C23.6557 10.0339 24.167 9.13259 25.1897 7.32992C26.2123 5.52725 26.7237 4.62592 27.5925 4.38975C28.4592 4.15142 29.3475 4.67359 31.1177 5.71359C31.7893 6.11009 32.5563 6.71459 33.358 6.77092C33.8607 6.80559 34.6558 6.47409 36.244 5.81325C37.9477 5.09995 39.8068 4.83874 41.6412 5.05492C43.2878 5.25209 44.1112 5.35175 44.6225 6.41992C45.1382 7.49242 44.6008 8.43709 43.5283 10.3286L42.3887 12.3349M38.051 19.9811L38.9913 20.5336C39.4849 20.8226 40.0312 21.0103 40.5982 21.0855C41.1652 21.1608 41.7416 21.1221 42.2935 20.9718C42.8453 20.8214 43.3617 20.5625 43.8122 20.2101C44.2627 19.8576 44.6384 19.4189 44.9172 18.9194C45.4942 17.9061 45.6511 16.707 45.3542 15.5793C45.0573 14.4516 44.3302 13.4852 43.329 12.8874L42.3887 12.3349M38.051 19.9811L42.3887 12.3349M13 26.0001L28.1667 15.1668M15.1667 47.6668H30.3333M13 32.5001L23.8333 47.6668M15.1667 28.1668C15.1667 29.316 14.7101 30.4182 13.8975 31.2309C13.0848 32.0435 11.9826 32.5001 10.8333 32.5001C9.68406 32.5001 8.58186 32.0435 7.7692 31.2309C6.95655 30.4182 6.5 29.316 6.5 28.1668C6.5 27.0175 6.95655 25.9153 7.7692 25.1026C8.58186 24.29 9.68406 23.8334 10.8333 23.8334C11.9826 23.8334 13.0848 24.29 13.8975 25.1026C14.7101 25.9153 15.1667 27.0175 15.1667 28.1668Z" stroke="#FBBC05" stroke-width="2.5" stroke-linecap="round" stroke-linejoin="round"/>
</svg>
